<svg xmlns="http://www.w3.org/2000/svg" version="1.1" xmlns:xlink="http://www.w3.org/1999/xlink" xmlns:svgjs="http://svgjs.dev/svgjs" width="1500" height="939" viewBox="0 0 1500 939"><g transform="matrix(1,0,0,1,-0.9090909090909918,-1.5145161290323017)"><svg viewBox="0 0 396 248" data-background-color="#000000" preserveAspectRatio="xMidYMid meet" height="939" width="1500" xmlns="http://www.w3.org/2000/svg" xmlns:xlink="http://www.w3.org/1999/xlink"><g id="tight-bounds" transform="matrix(1,0,0,1,0.2400000000000091,0.4000000000000057)"><svg viewBox="0 0 395.52 247.2" height="247.2" width="395.52"><g><svg></svg></g><g><svg viewBox="0 0 395.52 247.2" height="247.2" width="395.52"><g><path d="M55.039 247.2l26.403-45.732 7.584 0-22.403 38.804h262.274l-22.403-38.804 7.584 0 26.403 45.732zM197.76 0l26.403 45.732-7.583 0-18.82-32.596-18.82 32.596-7.583 0z" fill="#414bff" fill-rule="nonzero" stroke="none" stroke-width="1" stroke-linecap="butt" stroke-linejoin="miter" stroke-miterlimit="10" stroke-dasharray="" stroke-dashoffset="0" font-family="none" font-weight="none" font-size="none" text-anchor="none" style="mix-blend-mode: normal" data-fill-palette-color="tertiary"></path></g><g transform="matrix(1,0,0,1,42.031757322175736,67.97999999999999)"><svg viewBox="0 0 311.4564853556485 111.24" height="111.24" width="311.4564853556485"><g><svg viewBox="0 0 311.4564853556485 111.24" height="111.24" width="311.4564853556485"><g><svg viewBox="0 0 311.4564853556485 111.24" height="111.24" width="311.4564853556485"><g><svg viewBox="0 0 311.4564853556485 111.24" height="111.24" width="311.4564853556485"><g id="textblocktransform"><svg viewBox="0 0 311.4564853556485 111.24" height="111.24" width="311.4564853556485" id="textblock"><g><svg viewBox="0 0 311.4564853556485 111.24" height="111.24" width="311.4564853556485"><g transform="matrix(1,0,0,1,0,0)"><svg width="311.4564853556485" viewBox="4.49 -35.01 98.02000000000001 35.01" height="111.24" data-palette-color="url(#1ce78579-b8f6-4b84-9dac-b2b1448baa43)"></svg></g></svg></g></svg></g></svg></g><g></g></svg></g></svg></g></svg></g></svg></g><defs></defs><mask id="4a67f1d0-22ae-4921-a5d8-1c9011052ac0"><g id="SvgjsG2987"><svg viewBox="0 0 395.52 247.2" height="247.2" width="395.52"><g><svg></svg></g><g><svg viewBox="0 0 395.52 247.2" height="247.2" width="395.52"><g><path d="M55.039 247.2l26.403-45.732 7.584 0-22.403 38.804h262.274l-22.403-38.804 7.584 0 26.403 45.732zM197.76 0l26.403 45.732-7.583 0-18.82-32.596-18.82 32.596-7.583 0z" fill="black" fill-rule="nonzero" stroke="none" stroke-width="1" stroke-linecap="butt" stroke-linejoin="miter" stroke-miterlimit="10" stroke-dasharray="" stroke-dashoffset="0" font-family="none" font-weight="none" font-size="none" text-anchor="none" style="mix-blend-mode: normal"></path></g><g transform="matrix(1,0,0,1,42.031757322175736,67.97999999999999)"><svg viewBox="0 0 311.4564853556485 111.24" height="111.24" width="311.4564853556485"><g><svg viewBox="0 0 311.4564853556485 111.24" height="111.24" width="311.4564853556485"><g><svg viewBox="0 0 311.4564853556485 111.24" height="111.24" width="311.4564853556485"><g><svg viewBox="0 0 311.4564853556485 111.24" height="111.24" width="311.4564853556485"><g id="SvgjsG2986"><svg viewBox="0 0 311.4564853556485 111.24" height="111.24" width="311.4564853556485" id="SvgjsSvg2985"><g><svg viewBox="0 0 311.4564853556485 111.24" height="111.24" width="311.4564853556485"><g transform="matrix(1,0,0,1,0,0)"><svg width="311.4564853556485" viewBox="4.49 -35.01 98.02000000000001 35.01" height="111.24" data-palette-color="url(#1ce78579-b8f6-4b84-9dac-b2b1448baa43)"><path d="M32.15-26.49L32.15-22.51Q32.15-15.19 25.9-14.16L25.9-14.16 32.5 0 26.95 0 20.46-13.99 9.5-13.99 9.5 0 4.49 0 4.49-35.01 23.66-35.01Q32.15-35.01 32.15-26.49L32.15-26.49ZM9.5-30L9.5-18.99 23.39-18.99Q25.39-18.99 26.27-19.87 27.15-20.75 27.15-22.75L27.15-22.75 27.15-26.25Q27.15-28.25 26.27-29.13 25.39-30 23.39-30L23.39-30 9.5-30ZM51-35.01L56-35.01 69.5 0 64.5 0 61.4-8.06 45.6-8.06 42.5 0 37.5 0 51-35.01ZM53.51-28.49L47.51-13.06 59.47-13.06 53.51-28.49ZM97.5-14.99L80.51-14.99Q79.49-14.99 78.57-15.39 77.66-15.8 76.97-16.47 76.29-17.14 75.9-18.05 75.51-18.97 75.51-20L75.51-20 75.51-30Q75.51-31.03 75.9-31.95 76.29-32.86 76.97-33.53 77.66-34.2 78.57-34.61 79.49-35.01 80.51-35.01L80.51-35.01 97.5-35.01Q98.53-35.01 99.45-34.61 100.36-34.2 101.04-33.53 101.73-32.86 102.12-31.95 102.51-31.03 102.51-30L102.51-30 102.51-25.49 97.5-25.49 97.5-30 80.51-30 80.51-20 97.5-20Q98.53-20 99.45-19.6 100.36-19.21 101.04-18.53 101.73-17.85 102.12-16.93 102.51-16.02 102.51-14.99L102.51-14.99 102.51-5Q102.51-3.98 102.12-3.06 101.73-2.15 101.04-1.46 100.36-0.78 99.45-0.39 98.53 0 97.5 0L97.5 0 80.02 0Q79 0 78.08-0.39 77.17-0.78 76.48-1.46 75.8-2.15 75.41-3.06 75.02-3.98 75.02-5L75.02-5 75.02-9.5 80.02-9.5 80.02-5 97.5-5 97.5-14.99Z" opacity="1" transform="matrix(1,0,0,1,0,0)" fill="white" class="wordmark-text-0" id="SvgjsPath2984"></path></svg></g></svg></g></svg></g></svg></g><g></g></svg></g></svg></g></svg></g></svg></g><defs><mask></mask></defs></svg><rect width="395.52" height="247.2" fill="black" stroke="none" visibility="hidden"></rect></g></mask><linearGradient x1="0.054" x2="0.941" y1="0.5" y2="0.5" id="1ce78579-b8f6-4b84-9dac-b2b1448baa43"><stop stop-color="#864d25" offset="0"></stop><stop stop-color="#f1c4b3" offset="0.498"></stop><stop stop-color="#864d25" offset="1"></stop></linearGradient><rect width="395.52" height="247.2" fill="url(#1ce78579-b8f6-4b84-9dac-b2b1448baa43)" mask="url(#4a67f1d0-22ae-4921-a5d8-1c9011052ac0)" data-fill-palette-color="primary"></rect></svg><rect width="395.52" height="247.2" fill="none" stroke="none" visibility="hidden"></rect></g></svg></g></svg>